<svg id="PRINT" xmlns="http://www.w3.org/2000/svg" viewBox="0 0 326.87 113.19"><defs><style>.cls-1{fill:#e82f2f;}</style></defs><title>1Mesa de trabajo 1</title><g id="CUSTOM-Group"><path class="cls-1" d="M60.41.49,18.34,30.32a2.67,2.67,0,0,0-1.12,2.17V92.35A2.66,2.66,0,0,0,19.88,95H104a2.66,2.66,0,0,0,2.66-2.66V32.49a2.67,2.67,0,0,0-1.12-2.17L63.49.49A2.68,2.68,0,0,0,60.41.49Z"/><path d="M96.12,37.55,51.28,5.76a4.09,4.09,0,0,0-4.72,0L1.72,37.55A4.09,4.09,0,0,0,0,40.88v64.41a4.08,4.08,0,0,0,4.08,4.08H93.76a4.08,4.08,0,0,0,4.08-4.08V40.88A4.09,4.09,0,0,0,96.12,37.55Zm-6.43,63.67H8.15V43L48.92,14.08,89.69,43Zm-52-42.5a11.23,11.23,0,0,0,7.13,10.44V79.1a4.08,4.08,0,0,0,8.16,0V69.16A11.21,11.21,0,1,0,37.71,58.72Zm14.27,0a3.06,3.06,0,1,1-3.06-3.06A3.06,3.06,0,0,1,52,58.72Z"/></g><path d="M123.65,42.52a41.07,41.07,0,0,1,7.68-.65c4.27,0,7,.79,9,2.53a7.74,7.74,0,0,1,2.44,5.89,8.15,8.15,0,0,1-5.84,7.91v.13c2.39.83,3.81,3,4.55,6.26,1,4.32,1.75,7.31,2.39,8.5h-4.14c-.5-.87-1.19-3.54-2.07-7.4-.92-4.28-2.57-5.89-6.2-6h-3.77V73.09h-4Zm4,14.11h4.09c4.27,0,7-2.34,7-5.88,0-4-2.9-5.75-7.13-5.8a16.57,16.57,0,0,0-3.95.37Z"/><path d="M150.68,62.7c.09,5.47,3.59,7.72,7.63,7.72a14.67,14.67,0,0,0,6.16-1.14l.69,2.89a17.88,17.88,0,0,1-7.4,1.38c-6.85,0-10.94-4.51-10.94-11.22s4-12,10.44-12c7.26,0,9.19,6.39,9.19,10.49a14.38,14.38,0,0,1-.14,1.88Zm11.86-2.9c.05-2.57-1-6.57-5.61-6.57-4.09,0-5.88,3.77-6.2,6.57Z"/><path d="M183.79,73.09l-.33-2.8h-.13a8.32,8.32,0,0,1-6.81,3.31c-4.5,0-6.8-3.18-6.8-6.39,0-5.38,4.78-8.33,13.38-8.28v-.46c0-1.84-.51-5.15-5.06-5.15A11.08,11.08,0,0,0,172.25,55l-.92-2.67a13.76,13.76,0,0,1,7.31-2c6.8,0,8.46,4.65,8.46,9.11v8.32a32,32,0,0,0,.36,5.33Zm-.6-11.35c-4.42-.1-9.43.68-9.43,5a3.58,3.58,0,0,0,3.82,3.86A5.54,5.54,0,0,0,183,66.88a4.12,4.12,0,0,0,.23-1.28Z"/><path d="M193.63,40.45h4V73.09h-4Z"/><path d="M230.41,58.56h-12V69.73h13.43v3.36H214.36v-31H231.1v3.36H218.36v9.79h12Z"/><path d="M236.29,69a10.64,10.64,0,0,0,5.34,1.61c2.94,0,4.32-1.47,4.32-3.31s-1.15-3-4.14-4.09c-4-1.42-5.88-3.63-5.88-6.3,0-3.58,2.89-6.53,7.67-6.53a11.14,11.14,0,0,1,5.47,1.38l-1,2.94a8.66,8.66,0,0,0-4.55-1.28c-2.39,0-3.72,1.38-3.72,3,0,1.84,1.33,2.67,4.23,3.77,3.86,1.47,5.84,3.4,5.84,6.71,0,3.91-3,6.67-8.33,6.67A12.68,12.68,0,0,1,235.28,72Z"/><path d="M259.93,44.45v6.39h5.79v3.08h-5.79v12c0,2.76.78,4.32,3,4.32A8.78,8.78,0,0,0,265.3,70l.19,3a9.94,9.94,0,0,1-3.59.55,5.64,5.64,0,0,1-4.37-1.7c-1.14-1.2-1.56-3.17-1.56-5.79V53.92h-3.45V50.84H256V45.51Z"/><path d="M282.59,73.09l-.32-2.8h-.14a8.3,8.3,0,0,1-6.8,3.31c-4.51,0-6.81-3.18-6.81-6.39,0-5.38,4.78-8.33,13.38-8.28v-.46c0-1.84-.5-5.15-5.06-5.15A11.14,11.14,0,0,0,271.05,55l-.92-2.67a13.78,13.78,0,0,1,7.31-2c6.81,0,8.46,4.65,8.46,9.11v8.32a30.89,30.89,0,0,0,.37,5.33ZM282,61.74c-4.41-.1-9.42.68-9.42,5a3.58,3.58,0,0,0,3.82,3.86,5.53,5.53,0,0,0,5.37-3.73A4.12,4.12,0,0,0,282,65.6Z"/><path d="M297.12,44.45v6.39h5.79v3.08h-5.79v12c0,2.76.78,4.32,3,4.32A8.9,8.9,0,0,0,302.5,70l.18,3a9.92,9.92,0,0,1-3.58.55,5.62,5.62,0,0,1-4.37-1.7c-1.15-1.2-1.56-3.17-1.56-5.79V53.92h-3.45V50.84h3.45V45.51Z"/><path d="M309.44,62.7c.1,5.47,3.59,7.72,7.64,7.72a14.74,14.74,0,0,0,6.16-1.14l.69,2.89a18,18,0,0,1-7.41,1.38c-6.85,0-10.94-4.51-10.94-11.22s4-12,10.44-12c7.26,0,9.19,6.39,9.19,10.49a16.92,16.92,0,0,1-.13,1.88Zm11.87-2.9c0-2.57-1.06-6.57-5.61-6.57-4.1,0-5.89,3.77-6.21,6.57Z"/><path d="M128.81,107.51V101L124,92.2h2.25l2.15,4.22c.59,1.16,1,2.09,1.53,3.16h0c.43-1,1-2,1.55-3.16l2.2-4.22h2.25L130.8,101v6.52Z"/><path d="M150,99.7c0,5.27-3.2,8.06-7.11,8.06S136,104.63,136,100c0-4.86,3-8,7.11-8S150,95.15,150,99.7Zm-11.88.25c0,3.27,1.77,6.2,4.89,6.2s4.9-2.89,4.9-6.36c0-3.05-1.59-6.23-4.88-6.23S138.07,96.58,138.07,100Z"/><path d="M154.49,92.2v9.06c0,3.43,1.53,4.89,3.57,4.89,2.27,0,3.73-1.5,3.73-4.89V92.2h2v8.93c0,4.7-2.48,6.63-5.8,6.63-3.13,0-5.5-1.79-5.5-6.54v-9Z"/><path d="M167.21,92.4a21,21,0,0,1,3.8-.32c2.11,0,3.47.39,4.43,1.25a3.84,3.84,0,0,1,1.2,2.91,4,4,0,0,1-2.88,3.91v.07c1.18.41,1.88,1.5,2.25,3.09a24.33,24.33,0,0,0,1.18,4.2h-2.05a19.72,19.72,0,0,1-1-3.66c-.45-2.11-1.27-2.9-3.07-3h-1.86v6.63h-2Zm2,7h2c2.11,0,3.46-1.16,3.46-2.91,0-2-1.44-2.84-3.53-2.86a8.21,8.21,0,0,0-1.95.18Z"/><path d="M184.25,92.2h8.25v1.66h-6.28V99H192v1.63h-5.8v6.93h-2Z"/><path d="M197.29,92.2v9.06c0,3.43,1.52,4.89,3.56,4.89,2.28,0,3.73-1.5,3.73-4.89V92.2h2v8.93c0,4.7-2.48,6.63-5.79,6.63-3.14,0-5.5-1.79-5.5-6.54v-9Z"/><path d="M212.91,93.88h-4.65V92.2h11.33v1.68h-4.68v13.63h-2Z"/><path d="M223.27,92.2v9.06c0,3.43,1.52,4.89,3.57,4.89,2.27,0,3.73-1.5,3.73-4.89V92.2h2v8.93c0,4.7-2.47,6.63-5.79,6.63-3.13,0-5.5-1.79-5.5-6.54v-9Z"/><path d="M236,92.4a21,21,0,0,1,3.8-.32c2.11,0,3.47.39,4.43,1.25a3.84,3.84,0,0,1,1.2,2.91,4,4,0,0,1-2.89,3.91v.07c1.19.41,1.89,1.5,2.25,3.09a24,24,0,0,0,1.19,4.2h-2.05a19.72,19.72,0,0,1-1-3.66c-.46-2.11-1.27-2.9-3.07-3H238v6.63h-2Zm2,7h2c2.11,0,3.45-1.16,3.45-2.91,0-2-1.43-2.84-3.52-2.86a8.21,8.21,0,0,0-1.95.18Z"/><path d="M256.14,100.33h-5.95v5.52h6.63v1.66h-8.61V92.2h8.27v1.66h-6.29V98.7h5.95Z"/><path d="M266.18,92.2v6.41h7.4V92.2h2v15.31h-2v-7.18h-7.4v7.18h-2V92.2Z"/><path d="M292.1,99.7c0,5.27-3.21,8.06-7.11,8.06-4.05,0-6.89-3.13-6.89-7.77,0-4.86,3-8,7.11-8S292.1,95.15,292.1,99.7Zm-11.89.25c0,3.27,1.78,6.2,4.89,6.2s4.91-2.89,4.91-6.36c0-3.05-1.59-6.23-4.89-6.23S280.21,96.58,280.21,100Z"/><path d="M307.57,100.79c-.12-2.14-.25-4.71-.23-6.62h-.07c-.52,1.8-1.16,3.71-1.93,5.82l-2.7,7.43h-1.5l-2.48-7.29c-.73-2.16-1.34-4.14-1.77-6h-.05c0,1.91-.16,4.48-.29,6.78l-.41,6.56h-1.89l1.07-15.31h2.52l2.61,7.41c.64,1.88,1.16,3.56,1.55,5.15h.07c.38-1.54.93-3.22,1.61-5.15l2.73-7.41h2.52l.95,15.31H308Z"/><path d="M320.85,100.33h-6v5.52h6.63v1.66h-8.61V92.2h8.27v1.66H314.9V98.7h6Z"/></svg>